<?xml version="1.0" encoding="utf-8"?>
<!-- Generator: Adobe Illustrator 16.0.0, SVG Export Plug-In . SVG Version: 6.00 Build 0)  -->
<!DOCTYPE svg PUBLIC "-//W3C//DTD SVG 1.1//EN" "http://www.w3.org/Graphics/SVG/1.1/DTD/svg11.dtd">
<svg version="1.1" id="Belarus" xmlns="http://www.w3.org/2000/svg" xmlns:xlink="http://www.w3.org/1999/xlink" x="0px" y="0px"
	 width="1000px" height="1000px" viewBox="0 0 1000 1000" enable-background="new 0 0 1000 1000" xml:space="preserve">
<g id="regions">
	<polygon id="hrodnenskaia-voblasts" fill="none" stroke="#EFEFF8" stroke-width="30" points="372.944,355.388 364.405,346.849 
		364.405,338.31 355.867,329.771 347.327,329.771 347.327,312.692 330.249,295.614 321.71,304.153 304.632,304.153 296.093,312.692 
		296.093,321.231 287.554,329.771 287.554,363.927 279.015,372.466 279.015,389.544 270.476,398.083 279.015,406.622 
		287.554,406.622 296.093,415.161 296.093,423.7 296.093,432.239 287.554,432.239 279.015,440.778 270.476,440.778 261.424,432.239 
		270.476,423.7 270.476,415.161 261.937,406.622 253.397,415.161 244.858,415.161 227.78,432.239 210.702,432.239 202.163,440.778 
		202.163,457.857 193.624,466.396 185.085,457.857 176.546,466.396 168.007,466.396 159.468,474.935 142.39,474.935 
		133.851,466.396 116.772,466.396 108.233,474.935 91.155,474.935 82.616,466.396 74.077,466.396 74.077,483.474 82.616,492.013 
		82.616,526.169 91.155,534.708 91.155,551.786 99.694,560.325 99.694,568.864 99.694,577.403 108.233,585.942 108.233,611.56 
		116.772,620.099 116.772,662.794 125.312,662.794 133.851,654.255 142.39,662.794 159.468,662.794 168.007,671.333 
		176.546,662.794 176.546,645.716 185.085,637.177 193.624,628.638 210.702,628.638 210.702,637.177 219.241,645.716 
		244.858,645.716 244.858,637.177 253.397,628.638 261.937,628.638 270.476,620.099 270.476,585.942 279.015,577.403 
		279.015,568.864 287.554,560.325 304.632,560.325 330.249,560.325 338.788,568.864 347.327,568.864 355.867,560.325 
		364.405,560.325 364.405,526.169 355.867,517.63 347.327,517.63 347.327,509.091 338.788,500.552 338.788,492.013 338.788,483.474 
		355.867,466.396 355.867,457.857 347.327,457.857 347.327,449.317 330.249,449.317 330.249,440.778 321.71,440.778 321.71,432.239 
		330.249,423.7 347.327,423.7 364.405,406.622 364.405,398.083 372.944,389.544 372.944,381.005 381.483,372.466 381.483,355.388 	
		"/>
	<polygon id="vitsebskaia-voblasts" fill="none" stroke="#EFEFF8" stroke-width="30" points="816.976,363.927 816.976,346.849 
		799.897,346.849 791.358,338.31 782.819,338.31 774.28,329.771 774.28,321.231 782.819,312.692 782.819,304.153 791.358,304.153 
		791.358,295.614 799.897,287.075 799.897,269.997 791.358,261.458 782.819,252.919 782.819,235.84 791.358,227.301 
		791.358,193.145 782.819,193.145 774.28,201.685 765.742,193.145 765.742,184.606 748.664,167.528 740.125,167.528 
		731.586,158.989 688.89,158.989 680.352,167.528 663.273,167.528 654.734,176.067 646.195,176.067 637.656,167.528 
		637.656,158.989 646.195,150.45 646.195,141.911 637.656,133.372 620.577,133.372 612.038,124.833 603.499,124.833 
		586.422,141.911 577.883,141.911 577.883,133.372 569.344,124.833 569.344,116.294 552.265,116.294 543.726,116.294 
		535.186,124.833 526.646,116.294 526.646,107.755 509.569,107.755 492.492,124.833 492.492,133.372 483.953,141.911 
		475.414,141.911 466.875,150.45 466.875,167.528 458.335,167.528 441.257,167.528 432.718,158.989 415.64,158.989 390.022,184.606 
		372.944,184.606 372.944,201.685 364.405,210.224 364.405,227.301 355.867,235.84 364.405,244.379 390.022,244.379 
		398.562,252.919 390.022,252.919 381.483,261.458 381.483,269.997 347.327,269.997 338.788,278.536 338.788,287.075 
		330.249,295.614 347.327,312.692 355.867,304.153 415.64,304.153 424.179,295.614 432.718,295.614 432.718,304.153 
		441.257,312.692 449.796,312.692 458.335,321.231 458.335,329.771 466.875,329.771 475.414,338.31 475.414,346.849 
		483.953,355.388 526.646,355.388 543.726,372.466 552.265,363.927 552.265,355.388 569.344,355.388 569.344,363.927 
		577.883,372.466 586.422,372.466 594.961,363.927 646.195,363.927 646.195,398.083 637.656,406.622 637.656,423.7 646.195,423.7 
		663.273,406.622 688.89,406.622 697.429,415.161 705.968,415.161 705.968,406.622 723.046,406.622 731.586,415.161 
		748.664,415.161 757.203,406.622 757.203,398.083 765.742,389.544 774.28,398.083 782.819,398.083 791.358,389.544 
		808.437,389.544 816.976,381.005 808.437,381.005 808.437,372.466 	"/>
	<polygon id="mahiliouskaia-voblasts" fill="none" stroke="#EFEFF8" stroke-width="30" points="953.601,543.247 936.523,526.169 
		936.523,509.091 927.983,500.552 919.445,500.552 910.905,492.013 885.288,492.013 876.749,492.013 868.21,483.474 
		876.749,474.935 876.749,449.317 868.21,449.317 859.671,440.778 851.133,440.778 834.054,423.7 825.516,423.7 825.516,415.161 
		825.516,389.544 816.976,381.005 808.437,389.544 791.358,389.544 782.819,398.083 774.28,398.083 765.742,389.544 
		757.203,398.083 757.203,406.622 748.664,415.161 731.586,415.161 723.046,406.622 705.968,406.622 705.968,415.161 
		697.429,415.161 688.89,406.622 663.273,406.622 646.195,423.7 646.195,449.317 637.656,457.857 637.656,483.474 646.195,492.013 
		646.195,509.091 629.116,509.091 620.577,517.63 612.038,517.63 603.499,526.169 594.961,526.169 594.961,534.708 586.422,526.169 
		569.344,526.169 552.265,543.247 543.726,543.247 543.726,560.325 552.265,568.864 543.726,577.403 518.107,577.403 
		518.107,585.942 526.646,594.481 542.872,594.481 552.265,603.021 560.804,603.021 560.804,620.099 552.265,628.638 
		552.265,637.177 543.726,645.716 543.726,654.255 535.186,662.794 543.726,671.333 586.422,671.333 586.422,662.794 
		594.961,654.255 594.961,645.716 612.038,645.716 620.577,637.177 646.195,637.177 654.734,628.638 671.813,628.638 
		663.273,620.099 663.273,603.021 671.813,603.021 680.352,594.481 680.352,585.942 671.813,577.403 680.352,568.864 
		688.89,568.864 697.429,568.864 705.968,577.403 714.507,577.403 714.507,585.942 731.586,585.942 748.664,568.864 
		757.203,568.864 765.742,577.403 799.897,577.403 799.897,594.481 808.437,603.021 834.054,603.021 842.594,594.481 
		859.671,594.481 868.21,594.481 885.288,611.56 910.905,611.56 927.983,594.481 962.14,560.325 962.14,543.247 	"/>
	<polygon id="homelskaia-voblasts" fill="none" stroke="#EFEFF8" stroke-width="30" points="868.21,756.724 868.21,748.185 
		851.133,731.105 851.133,705.489 859.671,696.95 851.133,688.411 851.133,679.872 851.133,662.794 842.594,654.255 
		842.594,645.716 825.516,628.638 825.516,620.099 834.054,611.56 834.054,603.021 808.437,603.021 799.897,594.481 
		799.897,577.403 765.742,577.403 757.203,568.864 748.664,568.864 731.586,585.942 714.507,585.942 714.507,577.403 
		705.968,577.403 697.429,568.864 680.352,568.864 671.813,577.403 680.352,585.942 680.352,594.481 671.813,603.021 
		663.273,603.021 663.273,620.099 671.813,628.638 654.734,628.638 646.195,637.177 637.656,637.177 620.577,637.177 
		612.038,645.716 594.961,645.716 594.961,654.255 586.422,662.794 586.422,671.333 552.265,671.333 552.265,679.872 
		543.726,688.411 543.726,705.489 535.186,714.028 518.107,714.028 509.569,705.489 501.03,705.489 501.03,714.028 475.414,714.028 
		466.875,705.489 466.875,696.95 458.335,696.95 441.257,714.028 441.257,722.567 432.718,731.105 441.257,739.646 449.796,739.646 
		458.335,748.185 458.335,773.802 466.875,782.341 466.875,790.88 458.335,799.419 458.335,816.496 458.335,850.653 
		475.414,850.653 475.414,867.731 483.953,867.731 492.492,859.192 509.569,859.192 526.646,842.114 535.186,842.114 
		535.186,850.653 543.726,859.192 552.265,859.192 569.344,859.192 569.344,876.271 577.883,884.81 586.422,884.81 586.422,867.731 
		594.961,859.192 603.499,859.192 612.038,850.653 612.038,842.114 620.577,842.114 620.577,859.192 629.116,867.731 
		629.116,884.81 646.195,884.81 663.273,867.731 671.813,867.731 680.352,876.271 697.429,876.271 705.968,867.731 714.507,867.731 
		731.586,884.81 731.586,893.349 748.664,910.427 757.203,901.887 757.203,867.731 748.664,859.192 748.664,850.653 
		757.203,842.114 757.203,833.575 765.742,825.035 765.742,807.958 791.358,782.341 791.358,773.802 808.437,773.802 
		816.976,782.341 825.516,782.341 825.516,773.802 834.054,765.263 851.133,765.263 859.671,773.802 876.749,773.802 
		876.749,765.263 	"/>
	<polygon id="minskaia-voblasts" fill="none" stroke="#EFEFF8" stroke-width="30" points="646.195,398.083 646.195,363.927 
		594.961,363.927 586.422,372.466 577.883,372.466 569.344,363.927 569.344,355.388 552.265,355.388 552.265,363.927 
		543.726,372.466 526.646,355.388 501.03,355.388 483.953,355.388 475.414,346.849 475.414,338.31 466.875,329.771 458.335,329.771 
		458.335,321.231 449.796,312.692 441.257,312.692 432.718,304.153 432.718,295.614 424.179,295.614 415.64,304.153 
		355.867,304.153 347.327,312.692 347.327,329.771 355.867,329.771 364.405,338.31 364.405,346.849 372.944,355.388 
		381.483,355.388 381.483,372.466 372.944,381.005 372.944,389.544 364.405,398.083 364.405,406.622 355.867,415.161 347.327,423.7 
		330.249,423.7 321.71,432.239 321.71,440.778 330.249,440.778 330.249,449.317 347.327,449.317 347.327,457.857 355.867,457.857 
		355.867,466.396 347.327,474.935 338.788,483.474 338.788,500.552 347.327,509.091 347.327,517.63 355.867,517.63 364.405,526.169 
		364.405,560.325 355.867,560.325 347.327,568.864 347.327,577.403 338.788,585.942 338.788,594.481 347.839,603.021 
		355.867,603.021 364.405,611.56 347.327,628.638 355.867,637.177 355.867,654.255 364.405,645.716 372.944,645.716 
		390.022,662.794 407.101,662.794 415.64,671.333 415.64,705.489 424.179,714.028 424.179,722.567 432.718,731.105 441.257,722.567 
		441.257,714.028 458.335,696.95 466.875,696.95 466.875,705.489 475.414,714.028 501.03,714.028 501.03,705.489 509.569,705.489 
		518.107,714.028 535.186,714.028 543.726,705.489 543.726,688.411 552.265,679.872 552.265,671.333 543.726,671.333 
		535.186,662.794 543.726,654.255 543.726,645.716 552.265,637.177 552.265,628.638 560.804,620.099 560.804,603.021 
		552.265,603.021 542.872,594.481 526.646,594.481 518.107,585.942 518.107,577.403 543.726,577.403 552.265,568.864 
		543.726,560.325 543.726,543.247 552.265,543.247 560.804,534.708 569.344,526.169 586.422,526.169 594.961,534.708 
		594.961,526.169 603.499,526.169 612.038,517.63 620.577,517.63 629.116,509.091 646.195,509.091 646.195,492.013 637.656,483.474 
		637.656,466.396 637.656,457.857 646.195,449.317 646.195,423.7 637.656,423.7 637.656,406.622 	"/>
	<polygon id="brestskaia-voblasts" fill="none" stroke="#EFEFF8" stroke-width="30" points="458.335,773.802 458.335,765.263 
		458.335,748.185 449.796,739.646 441.257,739.646 432.718,731.105 424.179,722.567 424.179,714.028 415.64,705.489 415.64,671.333 
		407.101,662.794 390.022,662.794 372.944,645.716 364.405,645.716 355.867,654.255 355.867,637.177 347.327,628.638 
		364.405,611.56 355.867,603.021 347.839,603.021 338.788,594.481 338.788,585.942 347.327,577.403 347.327,568.864 
		338.788,568.864 330.249,560.325 304.632,560.325 287.554,560.325 279.015,568.864 279.015,577.403 270.476,585.942 
		270.476,620.099 261.937,628.638 253.397,628.638 244.858,637.177 244.858,645.716 227.78,645.716 219.241,645.716 
		210.702,637.177 210.702,628.638 193.624,628.638 185.085,637.177 176.546,645.716 176.546,662.794 168.007,671.333 
		159.468,662.794 142.39,662.794 133.851,654.255 125.312,662.794 116.772,662.794 116.772,679.872 99.694,679.872 91.155,688.411 
		74.077,688.411 57,705.489 57,714.028 48.46,722.567 48.46,731.105 39.921,739.646 48.46,748.185 57,748.185 65.538,756.724 
		74.077,765.263 82.616,765.263 82.616,773.802 91.155,782.341 91.155,790.88 82.616,799.419 82.616,825.035 74.077,833.575 
		74.077,859.192 82.616,867.731 82.616,850.653 91.155,842.114 99.694,842.114 108.233,842.114 116.772,850.653 116.772,859.192 
		125.312,859.192 133.851,850.653 159.468,825.035 159.468,799.419 193.624,799.419 219.241,799.419 227.78,790.88 244.858,790.88 
		253.397,799.419 279.015,799.419 287.554,790.88 296.093,799.419 321.71,799.419 330.249,807.958 355.867,807.958 364.405,816.496 
		381.483,816.496 390.022,825.035 424.179,825.035 432.718,833.575 432.718,842.114 441.257,850.653 458.335,850.653 
		458.335,816.496 458.335,799.419 466.875,790.88 466.875,782.341 	"/>
</g>
<g id="subregions">
	<g id="hrodnenskaia-voblasts-subregions">
		<polygon id="hrodzenski-raion" fill="#000111" stroke="#FFFFFF" points="159.468,534.708 142.39,534.708 133.851,543.247 
			133.851,551.786 125.312,560.325 108.233,560.325 99.694,568.864 99.694,560.325 91.155,551.786 91.155,534.708 82.616,526.169 
			82.616,492.013 74.077,483.474 74.077,466.396 82.616,466.396 91.155,474.935 108.233,474.935 116.772,466.396 133.851,466.396 
			142.39,474.935 159.468,474.935 		"/>
		<polygon id="berastavitski-raion" fill="#000111" stroke="#FFFFFF" points="99.694,568.864 99.694,577.403 108.233,585.942 
			108.233,611.56 116.772,620.099 133.851,603.021 133.851,568.864 125.312,560.325 108.233,560.325 		"/>
		<polygon id="mastouski-raion" fill="#000111" stroke="#FFFFFF" points="133.851,568.864 142.39,568.864 150.929,560.325 
			159.468,560.325 176.546,577.403 176.546,585.942 202.163,585.942 210.702,577.403 219.241,585.942 227.78,577.403 
			219.241,568.864 219.241,551.786 210.702,543.247 202.163,551.786 185.085,534.708 176.546,543.247 168.007,543.247 
			159.468,534.708 142.39,534.708 133.851,543.247 133.851,551.786 125.312,560.325 		"/>
		<polygon id="vaukavyski-raion" fill="#000111" stroke="#FFFFFF" points="176.546,594.481 185.085,603.021 185.085,611.56 
			193.624,620.099 193.624,628.638 185.085,637.177 159.468,611.56 142.39,611.56 133.851,603.021 133.851,568.864 142.39,568.864 
			150.929,560.325 159.468,560.325 176.546,577.403 		"/>
		<polygon id="zelvenski-raion" fill="#000111" stroke="#FFFFFF" points="227.78,577.403 236.319,585.942 227.78,594.481 
			236.319,603.021 227.78,611.56 219.241,611.56 210.702,620.099 210.702,628.638 193.624,628.638 193.624,620.099 185.085,611.56 
			185.085,603.021 176.546,594.481 176.546,585.942 202.163,585.942 210.702,577.403 219.241,585.942 		"/>
		<polygon id="svislatski-raion" fill="#000111" stroke="#FFFFFF" points="116.772,620.099 116.772,662.794 125.312,662.794 
			133.851,654.255 142.39,662.794 159.468,662.794 168.007,671.333 176.546,662.794 176.546,645.716 185.085,637.177 
			159.468,611.56 142.39,611.56 133.851,603.021 		"/>
		<polygon id="slonimski-raion" fill="#000111" stroke="#FFFFFF" points="210.702,628.638 210.702,637.177 219.241,645.716 
			244.858,645.716 244.858,637.177 253.397,628.638 261.937,628.638 270.476,620.099 270.476,585.942 253.397,585.942 
			244.858,577.403 236.319,585.942 227.78,594.481 236.319,603.021 227.78,611.56 219.241,611.56 210.702,620.099 		"/>
		<polygon id="dziatlauski-raion" fill="#000111" stroke="#FFFFFF" points="270.476,585.942 279.015,577.403 279.015,568.864 
			287.554,560.325 287.554,543.247 279.015,534.708 279.015,526.169 270.476,526.169 261.937,517.63 253.397,517.63 
			236.319,534.708 227.78,534.708 219.241,543.247 219.241,551.786 219.241,568.864 227.78,577.403 236.319,585.942 
			244.858,577.403 253.397,585.942 		"/>
		<polygon id="shchuchynski-raion" fill="#000111" stroke="#FFFFFF" points="227.78,534.708 227.78,526.169 219.241,517.63 
			219.241,509.091 210.702,500.552 210.702,492.013 202.163,492.013 193.624,483.474 193.624,466.396 185.085,457.857 
			176.546,466.396 168.007,466.396 159.468,474.935 159.468,534.708 168.007,543.247 176.546,543.247 185.085,534.708 
			202.163,551.786 210.702,543.247 219.241,551.786 219.241,543.247 		"/>
		<polygon id="voranauski-raion" fill="#000111" stroke="#FFFFFF" points="193.624,466.396 202.163,457.857 202.163,440.778 
			210.702,432.239 227.78,432.239 244.858,415.161 253.397,415.161 261.937,406.622 270.476,415.161 270.476,423.7 261.424,432.239 
			270.476,440.778 261.937,449.317 261.937,457.857 244.858,457.857 219.241,483.474 210.702,483.474 210.702,492.013 
			202.163,492.013 193.624,483.474 		"/>
		<polygon id="lidski-raion" fill="#000111" stroke="#FFFFFF" points="261.937,517.63 270.476,509.091 270.476,492.013 
			279.015,483.474 279.015,474.935 261.937,457.857 244.858,457.857 219.241,483.474 210.702,483.474 210.702,492.013 
			210.702,500.552 219.241,509.091 219.241,517.63 227.78,526.169 227.78,534.708 236.319,534.708 253.397,517.63 		"/>
		<polygon id="navagrudski-raion" fill="#000111" stroke="#FFFFFF" points="287.554,560.325 304.632,560.325 304.632,543.247 
			321.71,526.169 330.249,526.169 338.788,517.63 347.327,517.63 347.327,509.091 338.788,500.552 338.788,492.013 330.249,492.013 
			304.632,492.013 296.093,483.474 279.015,483.474 270.476,492.013 270.476,509.091 261.937,517.63 270.476,526.169 
			279.015,526.169 279.015,534.708 287.554,543.247 		"/>
		<polygon id="karelitski-raion" fill="#000111" stroke="#FFFFFF" points="304.632,560.325 330.249,560.325 338.788,568.864 
			347.327,568.864 355.867,560.325 364.405,560.325 364.405,526.169 355.867,517.63 347.327,517.63 338.788,517.63 330.249,526.169 
			321.71,526.169 304.632,543.247 		"/>
		<polygon id="iueuski-raion" fill="#000111" stroke="#FFFFFF" points="270.476,440.778 279.015,440.778 287.554,432.239 
			296.093,432.239 296.093,423.7 304.632,423.7 313.171,432.239 321.71,432.239 321.71,440.778 330.249,440.778 330.249,449.317 
			347.327,449.317 347.327,457.857 355.867,457.857 355.867,466.396 338.788,483.474 338.788,492.013 304.632,492.013 
			296.093,483.474 279.015,483.474 279.015,474.935 261.937,457.857 261.937,449.317 		"/>
		<polygon id="ashmianski-raion" fill="#000111" stroke="#FFFFFF" points="321.71,432.239 330.249,423.7 330.249,372.466 
			304.632,372.466 296.093,363.927 287.554,363.927 279.015,372.466 279.015,389.544 270.476,398.083 279.015,406.622 
			287.554,406.622 296.093,415.161 296.093,423.7 304.632,423.7 313.171,432.239 		"/>
		<polygon id="smargonski-raion" fill="#000111" stroke="#FFFFFF" points="330.249,423.7 347.327,423.7 364.405,406.622 
			364.405,398.083 372.944,389.544 372.944,381.005 381.483,372.466 381.483,355.388 372.944,355.388 364.405,346.849 
			364.405,338.31 355.867,329.771 347.327,329.771 338.788,338.31 338.788,346.849 347.327,355.388 338.788,363.927 
			330.249,363.927 330.249,372.466 		"/>
		<polygon id="astravetski-raion" fill="#000111" stroke="#FFFFFF" points="347.327,329.771 347.327,312.692 330.249,295.614 
			321.71,304.153 304.632,304.153 296.093,312.692 296.093,321.231 287.554,329.771 287.554,363.927 296.093,363.927 
			304.632,372.466 330.249,372.466 330.249,363.927 338.788,363.927 347.327,355.388 338.788,346.849 338.788,338.31 		"/>
	</g>
	<g id="vitsebskaia-voblasts-subregions">
		<polygon id="pastauski-raion" fill="#CF6051" stroke="#FFFFFF" points="330.249,295.614 338.788,287.075 338.788,278.536 
			347.327,269.997 381.483,269.997 381.483,261.458 390.022,252.919 441.257,252.919 449.796,261.458 449.796,278.536 
			458.335,287.075 458.335,295.614 432.718,295.614 424.179,295.614 415.64,304.153 355.867,304.153 347.327,312.692 		"/>
		<polygon id="braslauski-raion" fill="#CF6051" stroke="#FFFFFF" points="398.562,252.919 390.022,244.379 364.405,244.379 
			355.867,235.84 364.405,227.301 364.405,210.224 372.944,201.685 372.944,184.606 390.022,184.606 415.64,158.989 
			432.718,158.989 441.257,167.528 458.335,167.528 458.335,176.067 441.257,193.145 441.257,210.224 449.796,218.763 
			441.257,227.301 424.179,227.301 415.64,235.84 415.64,252.919 		"/>
		<polygon id="sharkaushchynski-raion" fill="#CF6051" stroke="#FFFFFF" points="449.796,218.763 501.03,218.763 509.569,227.301 
			509.569,244.379 501.03,244.379 492.492,252.919 483.953,244.379 458.335,244.379 458.335,252.919 449.796,261.458 
			441.257,252.919 415.64,252.919 415.64,235.84 424.179,227.301 441.257,227.301 		"/>
		<polygon id="dokshytski-raion" fill="#CF6051" stroke="#FFFFFF" points="432.718,295.614 432.718,304.153 441.257,312.692 
			449.796,312.692 458.335,321.231 458.335,329.771 466.875,329.771 475.414,338.31 475.414,346.849 483.953,355.388 
			526.646,355.388 526.646,338.31 535.186,329.771 543.726,329.771 543.726,312.692 518.107,287.075 466.875,287.075 
			458.335,295.614 		"/>
		<polygon id="hlybotski-raion" fill="#CF6051" stroke="#FFFFFF" points="526.646,295.614 526.646,287.075 535.186,278.536 
			535.186,252.919 543.726,244.379 535.186,235.84 526.646,244.379 509.569,244.379 501.03,244.379 492.492,252.919 
			483.953,244.379 458.335,244.379 458.335,252.919 449.796,261.458 449.796,278.536 458.335,287.075 458.335,295.614 
			466.875,287.075 518.107,287.075 		"/>
		<polygon id="miorski-raion" fill="#CF6051" stroke="#FFFFFF" points="535.186,235.84 535.186,218.763 543.726,210.224 
			543.726,201.685 526.646,201.685 509.569,184.606 501.03,184.606 501.03,167.528 492.492,158.989 483.953,167.528 
			466.875,167.528 466.875,167.528 458.335,167.528 458.335,176.067 441.257,193.145 441.257,210.224 449.796,218.763 
			501.03,218.763 509.569,227.301 509.569,244.379 526.646,244.379 		"/>
		<polygon id="verhniadzvinski-raion" fill="#CF6051" stroke="#FFFFFF" points="501.03,184.606 509.569,184.606 526.646,201.685 
			543.726,201.685 560.804,184.606 552.265,176.067 552.265,167.528 543.726,158.989 543.726,141.911 552.265,133.372 
			552.265,116.294 543.726,116.294 535.186,124.833 526.646,116.294 526.646,107.755 509.569,107.755 492.492,124.833 
			492.492,133.372 483.953,141.911 475.414,141.911 466.875,150.45 466.875,167.528 483.953,167.528 492.492,158.989 
			501.03,167.528 		"/>
		<polygon id="lepelski-raion" fill="#CF6051" stroke="#FFFFFF" points="526.646,355.388 543.726,372.466 552.265,363.927 
			552.265,355.388 569.344,355.388 577.883,346.849 586.422,346.849 594.961,338.31 603.499,338.31 603.499,329.771 
			594.961,321.231 612.038,304.153 612.038,287.075 594.961,287.075 586.422,287.075 577.883,295.614 560.804,295.614 
			543.726,312.692 543.726,329.771 535.186,329.771 526.646,338.31 		"/>
		<polygon id="chashnitski-raion" fill="#CF6051" stroke="#FFFFFF" points="569.344,355.388 569.344,363.927 577.883,372.466 
			586.422,372.466 594.961,363.927 646.195,363.927 654.734,355.388 654.734,346.849 646.195,338.31 646.195,321.231 
			637.656,312.692 637.656,304.153 612.038,304.153 594.961,321.231 603.499,329.771 603.499,338.31 594.961,338.31 
			586.422,346.849 577.883,346.849 		"/>
		<polygon id="talachynski-raion" fill="#CF6051" stroke="#FFFFFF" points="646.195,363.927 646.195,398.083 637.656,406.622 
			637.656,423.7 646.195,423.7 663.273,406.622 688.89,406.622 697.429,415.161 705.968,415.161 705.968,398.083 714.507,389.544 
			714.507,381.005 705.968,372.466 697.429,372.466 688.89,363.927 688.89,355.388 654.734,355.388 		"/>
		<polygon id="arshanski-raion" fill="#CF6051" stroke="#FFFFFF" points="705.968,406.622 723.046,406.622 731.586,415.161 
			748.664,415.161 757.203,406.622 757.203,398.083 765.742,389.544 765.742,381.005 748.664,363.927 757.203,355.388 
			757.203,346.849 765.742,338.31 765.742,329.771 748.664,329.771 731.586,329.771 723.046,338.31 723.046,346.849 
			714.507,355.388 688.89,355.388 688.89,363.927 697.429,372.466 705.968,372.466 714.507,381.005 714.507,389.544 
			705.968,398.083 		"/>
		<polygon id="dubrovenski-raion" fill="#CF6051" stroke="#FFFFFF" points="765.742,389.544 774.28,398.083 782.819,398.083 
			791.358,389.544 808.437,389.544 816.976,381.005 808.437,381.005 808.437,372.466 816.976,363.927 816.976,346.849 
			799.897,346.849 791.358,338.31 782.819,338.31 774.28,329.771 765.742,329.771 765.742,338.31 757.203,346.849 757.203,355.388 
			748.664,363.927 765.742,381.005 		"/>
		<polygon id="sennenski-raion" fill="#CF6051" stroke="#FFFFFF" points="646.195,321.231 663.273,304.153 671.813,304.153 
			680.352,295.614 697.429,295.614 705.968,304.153 714.507,304.153 723.046,312.692 740.125,312.692 748.664,321.231 
			748.664,329.771 731.586,329.771 723.046,338.31 723.046,346.849 714.507,355.388 688.89,355.388 654.734,355.388 
			654.734,346.849 646.195,338.31 		"/>
		<polygon id="lioznenski-raion" fill="#CF6051" stroke="#FFFFFF" points="774.28,329.771 774.28,321.231 782.819,312.692 
			782.819,304.153 791.358,304.153 791.358,295.614 799.897,287.075 799.897,269.997 791.358,261.458 774.28,261.458 
			757.203,278.536 748.664,278.536 740.125,287.075 740.125,312.692 748.664,321.231 748.664,329.771 		"/>
		<polygon id="vitsebski-raion" fill="#CF6051" stroke="#FFFFFF" points="791.358,261.458 782.819,252.919 782.819,235.84 
			791.358,227.301 791.358,193.145 782.819,193.145 774.28,201.685 765.742,210.224 748.664,210.224 748.664,218.763 
			731.586,235.84 697.429,235.84 688.89,244.379 688.89,261.458 697.429,269.997 697.429,295.614 705.968,304.153 714.507,304.153 
			723.046,312.692 740.125,312.692 740.125,287.075 748.664,278.536 757.203,278.536 774.28,261.458 		"/>
		<polygon id="beshankovitski-raion" fill="#CF6051" stroke="#FFFFFF" points="688.89,261.458 680.352,261.458 671.813,269.997 
			671.813,278.536 654.734,278.536 646.195,287.075 646.195,278.536 637.656,278.536 629.116,269.997 629.116,261.458 
			620.577,252.919 620.577,278.536 612.038,287.075 612.038,304.153 637.656,304.153 637.656,312.692 646.195,321.231 
			663.273,304.153 671.813,304.153 680.352,295.614 697.429,295.614 697.429,269.997 		"/>
		<polygon id="shumilinski-raion" fill="#CF6051" stroke="#FFFFFF" points="688.89,244.379 680.352,244.379 671.813,235.84 
			671.813,218.763 654.734,201.685 637.656,218.763 629.116,218.763 612.038,235.84 603.499,235.84 620.577,252.919 
			629.116,261.458 629.116,269.997 637.656,278.536 646.195,278.536 646.195,287.075 654.734,278.536 671.813,278.536 
			671.813,269.997 680.352,261.458 688.89,261.458 		"/>
		<polygon id="ushatski-raion" fill="#CF6051" stroke="#FFFFFF" points="603.499,235.84 586.422,252.919 560.804,252.919 
			552.265,261.458 535.186,261.458 535.186,278.536 526.646,287.075 526.646,295.614 543.726,312.692 560.804,295.614 
			577.883,295.614 586.422,287.075 612.038,287.075 620.577,278.536 620.577,252.919 		"/>
		<polygon id="polatski-raion" fill="#CF6051" stroke="#FFFFFF" points="654.734,201.685 654.734,176.067 646.195,176.067 
			637.656,167.528 629.116,167.528 620.577,176.067 612.038,176.067 603.499,184.606 560.804,184.606 543.726,201.685 
			543.726,210.224 535.186,218.763 535.186,235.84 543.726,244.379 535.186,252.919 535.186,261.458 552.265,261.458 
			560.804,252.919 586.422,252.919 603.499,235.84 612.038,235.84 629.116,218.763 637.656,218.763 		"/>
		<polygon id="haradotski-raion" fill="#CF6051" stroke="#FFFFFF" points="774.28,201.685 765.742,193.145 765.742,184.606 
			748.664,167.528 740.125,167.528 731.586,158.989 688.89,158.989 680.352,167.528 663.273,167.528 654.734,176.067 
			654.734,201.685 671.813,218.763 671.813,235.84 680.352,244.379 688.89,244.379 697.429,235.84 731.586,235.84 748.664,218.763 
			748.664,210.224 765.742,210.224 		"/>
		<polygon id="rasonski-raion" fill="#CF6051" stroke="#FFFFFF" points="637.656,167.528 637.656,158.989 646.195,150.45 
			646.195,141.911 637.656,133.372 620.577,133.372 612.038,124.833 603.499,124.833 586.422,141.911 577.883,141.911 
			577.883,133.372 569.344,124.833 569.344,116.294 552.265,116.294 552.265,133.372 543.726,141.911 543.726,158.989 
			552.265,167.528 552.265,176.067 560.804,184.606 603.499,184.606 612.038,176.067 620.577,176.067 629.116,167.528 		"/>
	</g>
	<g id="mahiliouskaia-voblasts-subregions">
		<polygon id="horatski-raion" fill="#CF6051" stroke="#FFFFFF" points="816.976,381.005 825.516,389.544 825.516,415.161 
			825.516,423.7 816.976,432.239 799.897,432.239 791.358,440.778 782.819,440.778 774.28,432.239 765.742,423.7 757.203,423.7 
			748.664,415.161 757.203,406.622 757.203,398.083 765.742,389.544 774.28,398.083 782.819,398.083 791.358,389.544 
			808.437,389.544 		"/>
		<polygon id="drybinski-raion" fill="#CF6051" stroke="#FFFFFF" points="816.976,432.239 816.976,449.317 825.516,457.857 
			816.976,466.396 799.897,466.396 791.358,457.857 765.742,457.857 757.203,449.317 765.742,440.778 765.742,423.7 
			782.819,440.778 791.358,440.778 799.897,432.239 		"/>
		<polygon id="mstsislauski-raion" fill="#CF6051" stroke="#FFFFFF" points="816.976,466.396 825.516,474.935 825.516,492.013 
			834.054,492.013 842.594,483.474 868.21,483.474 876.749,474.935 876.749,449.317 868.21,449.317 859.671,440.778 
			851.133,440.778 834.054,423.7 825.516,423.7 816.976,432.239 816.976,449.317 825.516,457.857 		"/>
		<polygon id="shklouski-raion" fill="#CF6051" stroke="#FFFFFF" points="705.968,415.161 705.968,423.7 697.429,432.239 
			697.429,440.778 705.968,449.317 723.046,449.317 731.586,457.857 748.664,457.857 757.203,449.317 765.742,440.778 
			765.742,423.7 757.203,423.7 748.664,415.161 731.586,415.161 723.046,406.622 705.968,406.622 		"/>
		<polygon id="kruhlianski-raion" fill="#CF6051" stroke="#FFFFFF" points="697.429,440.778 671.813,440.778 663.273,449.317 
			646.195,449.317 646.195,423.7 663.273,406.622 688.89,406.622 697.429,415.161 705.968,415.161 705.968,423.7 697.429,432.239 		
			"/>
		<polygon id="bialynitski-raion" fill="#CF6051" stroke="#FFFFFF" points="646.195,449.317 637.656,457.857 637.656,483.474 
			646.195,492.013 646.195,509.091 654.734,500.552 663.273,500.552 671.813,509.091 680.352,509.091 680.352,492.013 
			705.968,466.396 705.968,449.317 697.429,440.778 671.813,440.778 663.273,449.317 		"/>
		<polygon id="klichauski-raion" fill="#CF6051" stroke="#FFFFFF" points="646.195,509.091 629.116,509.091 620.577,517.63 
			612.038,517.63 603.499,526.169 594.961,526.169 594.961,551.786 603.499,560.325 603.499,568.864 612.038,577.403 
			620.577,577.403 629.116,568.864 637.656,568.864 671.813,534.708 680.352,534.708 680.352,509.091 671.813,509.091 
			663.273,500.552 654.734,500.552 		"/>
		<polygon id="asipovitski-raion" fill="#CF6051" stroke="#FFFFFF" points="594.961,551.786 594.961,534.708 586.422,526.169 
			569.344,526.169 552.265,543.247 543.726,543.247 543.726,560.325 552.265,568.864 543.726,577.403 518.107,577.403 
			518.107,585.942 526.646,594.481 542.872,594.481 552.265,603.021 577.883,603.021 603.499,577.403 612.038,577.403 
			603.499,568.864 603.499,560.325 		"/>
		<polygon id="hluski-raion" fill="#000111" stroke="#FFFFFF" points="560.804,603.021 560.804,620.099 552.265,628.638 
			552.265,637.177 543.726,645.716 543.726,654.255 535.186,662.794 543.726,671.333 586.422,671.333 586.422,662.794 
			594.961,654.255 594.961,645.716 594.961,628.638 577.883,611.56 577.883,603.021 		"/>
		<polygon id="babruiski-raion" fill="#CF6051" stroke="#FFFFFF" points="594.961,645.716 612.038,645.716 620.577,637.177 
			646.195,637.177 654.734,628.638 671.813,628.638 663.273,620.099 663.273,603.021 654.734,594.481 629.116,594.481 
			612.038,577.403 603.499,577.403 577.883,603.021 577.883,611.56 594.961,628.638 		"/>
		<polygon id="kirauski-raion" fill="#CF6051" stroke="#FFFFFF" points="663.273,603.021 671.813,603.021 680.352,594.481 
			680.352,585.942 671.813,577.403 680.352,568.864 688.89,568.864 688.89,551.786 680.352,543.247 680.352,534.708 
			671.813,534.708 637.656,568.864 629.116,568.864 620.577,577.403 612.038,577.403 629.116,594.481 654.734,594.481 		"/>
		<polygon id="byhauski-raion" fill="#CF6051" stroke="#FFFFFF" points="688.89,568.864 697.429,568.864 705.968,577.403 
			714.507,577.403 714.507,585.942 731.586,585.942 748.664,568.864 757.203,568.864 757.203,551.786 765.742,543.247 
			765.742,526.169 757.203,517.63 723.046,517.63 714.507,509.091 680.352,509.091 680.352,543.247 688.89,551.786 		"/>
		<polygon id="mahiliouski-raion" fill="#CF6051" stroke="#FFFFFF" points="757.203,517.63 757.203,509.091 748.664,500.552 
			757.203,492.013 757.203,483.474 765.742,474.935 774.28,466.396 774.28,457.857 765.742,457.857 757.203,449.317 
			748.664,457.857 731.586,457.857 723.046,449.317 705.968,449.317 705.968,466.396 680.352,492.013 680.352,509.091 
			714.507,509.091 723.046,517.63 		"/>
		<polygon id="chavuski-raion" fill="#CF6051" stroke="#FFFFFF" points="825.516,492.013 816.976,492.013 808.437,500.552 
			808.437,509.091 799.897,517.63 791.358,517.63 782.819,526.169 774.28,526.169 765.742,534.708 765.742,526.169 757.203,517.63 
			757.203,509.091 748.664,500.552 757.203,492.013 757.203,483.474 774.28,466.396 774.28,457.857 791.358,457.857 
			799.897,466.396 816.976,466.396 825.516,474.935 		"/>
		<polygon id="cherykauski-raion" fill="#CF6051" stroke="#FFFFFF" points="808.437,509.091 808.437,534.708 816.976,543.247 
			816.976,551.786 851.133,551.786 859.671,543.247 859.671,526.169 842.594,509.091 834.054,509.091 825.516,500.552 
			825.516,492.013 816.976,492.013 808.437,500.552 		"/>
		<polygon id="krychauski-raion" fill="#CF6051" stroke="#FFFFFF" points="859.671,526.169 868.21,517.63 876.749,517.63 
			885.288,509.091 885.288,492.013 876.749,492.013 868.21,483.474 842.594,483.474 834.054,492.013 825.516,492.013 
			825.516,500.552 834.054,509.091 842.594,509.091 		"/>
		<polygon id="klimavitski-raion" fill="#CF6051" stroke="#FFFFFF" points="885.288,492.013 910.905,492.013 919.445,500.552 
			927.983,500.552 936.523,509.091 936.523,526.169 910.905,551.786 868.21,551.786 859.671,543.247 859.671,526.169 868.21,517.63 
			876.749,517.63 885.288,509.091 		"/>
		<polygon id="khotsimski-raion" fill="#CF6051" stroke="#FFFFFF" points="936.523,526.169 953.601,543.247 962.14,543.247 
			962.14,560.325 927.983,594.481 919.445,585.942 919.445,577.403 910.905,568.864 910.905,551.786 		"/>
		<polygon id="kastsiukovitski-raion" fill="#CF6051" stroke="#FFFFFF" points="927.983,594.481 910.905,611.56 885.288,611.56 
			868.21,594.481 859.671,594.481 859.671,585.942 868.21,577.403 868.21,551.786 910.905,551.786 910.905,568.864 919.445,577.403 
			919.445,585.942 		"/>
		<polygon id="krasnapolski-raion" fill="#CF6051" stroke="#FFFFFF" points="859.671,594.481 842.594,594.481 834.054,603.021 
			808.437,603.021 799.897,594.481 799.897,577.403 816.976,560.325 816.976,551.786 851.133,551.786 859.671,543.247 
			868.21,551.786 868.21,577.403 859.671,585.942 		"/>
		<polygon id="slauharadski-raion" fill="#CF6051" stroke="#FFFFFF" points="799.897,577.403 765.742,577.403 757.203,568.864 
			757.203,551.786 765.742,543.247 765.742,534.708 774.28,526.169 782.819,526.169 791.358,517.63 799.897,517.63 808.437,509.091 
			808.437,534.708 816.976,543.247 816.976,551.786 816.976,560.325 		"/>
	</g>
	<g id="homelskaia-voblasts-subregions">
		<polygon id="karmianski-raion" fill="#CF6051" stroke="#FFFFFF" points="808.437,603.021 799.897,611.56 791.358,611.56 
			774.28,628.638 765.742,628.638 757.203,620.099 748.664,611.56 748.664,603.021 765.742,585.942 765.742,577.403 
			799.897,577.403 799.897,594.481 		"/>
		<polygon id="chacherski-raion" fill="#CF6051" stroke="#FFFFFF" points="834.054,603.021 834.054,611.56 825.516,620.099 
			825.516,628.638 816.976,637.177 816.976,645.716 808.437,645.716 791.358,662.794 791.358,671.333 782.819,671.333 
			774.28,662.794 774.28,654.255 748.664,628.638 757.203,620.099 765.742,628.638 774.28,628.638 791.358,611.56 799.897,611.56 
			808.437,603.021 		"/>
		<polygon id="rahachouski-raion" fill="#CF6051" stroke="#FFFFFF" points="748.664,628.638 740.125,628.638 740.125,645.716 
			731.586,637.177 723.046,637.177 714.507,628.638 671.813,628.638 663.273,620.099 663.273,603.021 671.813,603.021 
			680.352,594.481 680.352,585.942 671.813,577.403 680.352,568.864 697.429,568.864 705.968,577.403 714.507,577.403 
			714.507,585.942 731.586,585.942 748.664,568.864 757.203,568.864 765.742,577.403 765.742,585.942 748.664,603.021 
			748.664,611.56 757.203,620.099 		"/>
		<polygon id="zhlobinski-raion" fill="#CF6051" stroke="#FFFFFF" points="740.125,645.716 731.586,654.255 731.586,662.794 
			723.046,671.333 723.046,696.95 705.968,696.95 697.429,688.411 688.89,688.411 680.352,679.872 671.813,679.872 646.195,654.255 
			646.195,645.716 637.656,637.177 646.195,637.177 654.734,628.638 714.507,628.638 723.046,637.177 731.586,637.177 		"/>
		<polygon id="svetlahorski-raion" fill="#CF6051" stroke="#FFFFFF" points="697.429,688.411 688.89,696.95 688.89,722.567 
			680.352,714.028 663.273,714.028 654.734,722.567 646.195,722.567 637.656,714.028 637.656,705.489 629.116,696.95 
			620.577,696.95 620.577,688.411 629.116,679.872 620.577,671.333 620.577,662.794 612.038,654.255 612.038,645.716 
			620.577,637.177 637.656,637.177 646.195,645.716 646.195,654.255 671.813,679.872 680.352,679.872 688.89,688.411 		"/>
		<polygon id="aktsiabrski-raion" fill="#000111" stroke="#FFFFFF" points="620.577,696.95 612.038,705.489 594.961,705.489 
			586.422,696.95 577.883,696.95 569.344,705.489 543.726,705.489 543.726,688.411 552.265,679.872 552.265,671.333 
			586.422,671.333 586.422,662.794 594.961,654.255 594.961,645.716 612.038,645.716 612.038,654.255 620.577,662.794 
			620.577,671.333 629.116,679.872 620.577,688.411 		"/>
		<polygon id="petrykauski-raion" fill="#000111" stroke="#FFFFFF" points="543.726,705.489 535.186,714.028 535.186,722.567 
			518.107,739.646 518.107,765.263 526.646,773.802 526.646,782.341 552.265,782.341 560.804,773.802 569.344,773.802 
			577.883,765.263 603.499,765.263 603.499,748.185 594.961,739.646 594.961,731.105 603.499,722.567 603.499,705.489 
			594.961,705.489 586.422,696.95 577.883,696.95 569.344,705.489 		"/>
		<polygon id="zhytkavitski-raion" fill="#000111" stroke="#FFFFFF" points="535.186,714.028 518.107,714.028 509.569,705.489 
			501.03,705.489 501.03,714.028 475.414,714.028 466.875,705.489 466.875,696.95 458.335,696.95 441.257,714.028 441.257,722.567 
			432.718,731.105 441.257,739.646 449.796,739.646 458.335,748.185 458.335,773.802 466.875,782.341 466.875,790.88 
			458.335,799.419 458.335,816.496 475.414,799.419 483.953,799.419 492.492,790.88 509.569,790.88 518.107,782.341 
			526.646,782.341 526.646,773.802 518.107,765.263 518.107,739.646 535.186,722.567 		"/>
		<polygon id="lelchytski-raion" fill="#000111" stroke="#FFFFFF" points="458.335,816.496 458.335,850.653 475.414,850.653 
			475.414,867.731 483.953,867.731 492.492,859.192 509.569,859.192 526.646,842.114 535.186,842.114 535.186,850.653 
			543.726,859.192 552.265,859.192 560.804,850.653 560.804,833.575 577.883,816.496 577.883,799.419 569.344,790.88 
			560.804,790.88 552.265,782.341 518.107,782.341 509.569,790.88 492.492,790.88 483.953,799.419 475.414,799.419 		"/>
		<polygon id="kalinkavitski-raion" fill="#000111" stroke="#FFFFFF" points="654.734,816.496 663.273,807.958 663.273,799.419 
			688.89,773.802 671.813,756.724 680.352,748.185 680.352,739.646 688.89,731.105 688.89,722.567 680.352,714.028 663.273,714.028 
			654.734,722.567 646.195,722.567 637.656,714.028 637.656,705.489 629.116,696.95 620.577,696.95 612.038,705.489 
			603.499,705.489 603.499,722.567 594.961,731.105 594.961,739.646 603.499,748.185 603.499,765.263 620.577,765.263 
			637.656,782.341 637.656,790.88 654.734,807.958 		"/>
		<polygon id="mazyrski-raion" fill="#000111" stroke="#FFFFFF" points="577.883,816.496 586.422,816.496 594.961,807.958 
			629.116,807.958 637.656,807.958 646.195,816.496 654.734,816.496 654.734,807.958 637.656,790.88 637.656,782.341 
			620.577,765.263 603.499,765.263 577.883,765.263 569.344,773.802 560.804,773.802 552.265,782.341 560.804,790.88 
			569.344,790.88 577.883,799.419 		"/>
		<polygon id="elski-raion" fill="#000111" stroke="#FFFFFF" points="629.116,807.958 629.116,816.496 620.577,825.035 
			620.577,842.114 612.038,842.114 612.038,850.653 603.499,859.192 594.961,859.192 586.422,867.731 586.422,884.81 
			577.883,884.81 569.344,876.271 569.344,859.192 552.265,859.192 560.804,850.653 560.804,833.575 577.883,816.496 
			586.422,816.496 594.961,807.958 		"/>
		<polygon id="naraulianski-raion" fill="#000111" stroke="#FFFFFF" points="620.577,842.114 620.577,859.192 629.116,867.731 
			629.116,884.81 646.195,884.81 663.273,867.731 671.813,867.731 680.352,876.271 697.429,876.271 680.352,859.192 
			680.352,850.653 663.273,833.575 663.273,825.035 654.734,825.035 654.734,816.496 646.195,816.496 637.656,807.958 
			629.116,807.958 629.116,816.496 620.577,825.035 		"/>
		<polygon id="khoinitski-raion" fill="#000111" stroke="#FFFFFF" points="697.429,876.271 705.968,867.731 714.507,867.731 
			714.507,859.192 705.968,850.653 705.968,842.114 697.429,833.575 705.968,825.035 705.968,816.496 714.507,807.958 
			714.507,799.419 731.586,782.341 731.586,773.802 723.046,773.802 714.507,765.263 714.507,756.724 705.968,756.724 
			688.89,773.802 663.273,799.419 663.273,807.958 654.734,816.496 654.734,825.035 663.273,825.035 663.273,833.575 
			680.352,850.653 680.352,859.192 		"/>
		<polygon id="brahinski-raion" fill="#000111" stroke="#FFFFFF" points="714.507,867.731 731.586,884.81 731.586,893.349 
			748.664,910.427 757.203,901.887 757.203,867.731 748.664,859.192 748.664,850.653 757.203,842.114 757.203,833.575 
			748.664,825.035 748.664,816.496 740.125,807.958 740.125,790.88 731.586,782.341 714.507,799.419 714.507,807.958 
			705.968,816.496 705.968,825.035 697.429,833.575 705.968,842.114 705.968,850.653 714.507,859.192 		"/>
		<polygon id="rechytski-raion" fill="#000111" stroke="#FFFFFF" points="731.586,773.802 748.664,773.802 765.742,756.724 
			757.203,748.185 765.742,739.646 765.742,731.105 748.664,714.028 748.664,705.489 731.586,705.489 723.046,696.95 
			705.968,696.95 697.429,688.411 688.89,696.95 688.89,731.105 680.352,739.646 680.352,748.185 671.813,756.724 688.89,773.802 
			705.968,756.724 714.507,756.724 714.507,765.263 723.046,773.802 		"/>
		<polygon id="loeuski-raion" fill="#000111" stroke="#FFFFFF" points="757.203,833.575 765.742,825.035 765.742,807.958 
			791.358,782.341 791.358,773.802 782.819,773.802 765.742,756.724 748.664,773.802 731.586,773.802 731.586,782.341 
			740.125,790.88 740.125,807.958 748.664,816.496 748.664,825.035 		"/>
		<polygon id="buda-kashaliouski-raion" fill="#CF6051" stroke="#FFFFFF" points="748.664,705.489 757.203,705.489 765.742,696.95 
			782.819,696.95 791.358,688.411 791.358,671.333 782.819,671.333 774.28,662.794 774.28,654.255 748.664,628.638 740.125,628.638 
			740.125,645.716 731.586,654.255 731.586,662.794 723.046,671.333 723.046,696.95 731.586,705.489 		"/>
		<polygon id="homelski-raion" fill="#000111" stroke="#FFFFFF" points="791.358,688.411 816.976,714.028 816.976,748.185 
			834.054,765.263 825.516,773.802 825.516,782.341 816.976,782.341 808.437,773.802 791.358,773.802 782.819,773.802 
			757.203,748.185 765.742,739.646 765.742,731.105 748.664,714.028 748.664,705.489 757.203,705.489 765.742,696.95 
			782.819,696.95 		"/>
		<polygon id="vetkauski-raion" fill="#CF6051" stroke="#FFFFFF" points="816.976,714.028 816.976,705.489 825.516,696.95 
			834.054,696.95 851.133,679.872 851.133,662.794 842.594,654.255 842.594,645.716 825.516,628.638 816.976,637.177 
			816.976,645.716 808.437,645.716 791.358,662.794 791.358,671.333 791.358,688.411 		"/>
		<polygon id="dobrushski-raion" fill="#000111" stroke="#FFFFFF" points="851.133,679.872 851.133,688.411 859.671,696.95 
			851.133,705.489 851.133,731.105 868.21,748.185 868.21,756.724 876.749,765.263 876.749,773.802 859.671,773.802 
			851.133,765.263 834.054,765.263 816.976,748.185 816.976,714.028 816.976,705.489 825.516,696.95 834.054,696.95 		"/>
	</g>
	<g id="minskaia-voblasts-subregions">
		<polygon id="salihorski-raion" fill="#000111" stroke="#FFFFFF" points="432.718,731.105 424.179,722.567 424.179,714.028 
			415.64,705.489 415.64,671.333 407.101,662.794 415.64,654.255 424.179,654.255 424.179,637.177 458.335,637.177 466.875,645.716 
			475.414,645.716 483.953,654.255 483.953,671.333 492.492,679.872 492.492,688.411 501.03,696.95 501.03,705.489 501.03,714.028 
			475.414,714.028 466.875,705.489 466.875,696.95 458.335,696.95 441.257,714.028 441.257,722.567 		"/>
		<polygon id="liubanski-raion" fill="#000111" stroke="#FFFFFF" points="475.414,645.716 492.492,628.638 501.03,628.638 
			509.569,637.177 518.107,637.177 526.646,645.716 535.186,645.716 543.726,654.255 535.186,662.794 543.726,671.333 
			552.265,671.333 552.265,679.872 543.726,688.411 543.726,705.489 535.186,714.028 518.107,714.028 509.569,705.489 
			501.03,705.489 501.03,696.95 492.492,688.411 492.492,679.872 483.953,671.333 483.953,654.255 		"/>
		<polygon id="staradarozhski-raion" fill="#000111" stroke="#FFFFFF" points="501.03,628.638 501.03,611.56 509.569,603.021 
			509.569,594.481 492.492,594.481 492.492,585.942 501.03,577.403 501.03,568.864 509.569,568.864 518.107,577.403 
			518.107,585.942 526.646,594.481 542.872,594.481 552.265,603.021 560.804,603.021 560.804,620.099 552.265,628.638 
			552.265,637.177 543.726,645.716 543.726,654.255 535.186,645.716 526.646,645.716 518.107,637.177 509.569,637.177 		"/>
		<polygon id="puhavitski-raion" fill="#CF6051" stroke="#FFFFFF" points="492.492,585.942 483.953,577.403 475.414,577.403 
			466.875,568.864 466.875,560.325 475.414,551.786 466.875,543.247 466.875,534.708 458.335,526.169 458.335,517.63 
			475.414,517.63 483.953,509.091 483.953,500.552 492.492,500.552 509.569,517.63 518.107,517.63 526.646,526.169 535.186,526.169 
			543.726,517.63 560.804,534.708 552.265,543.247 543.726,543.247 543.726,560.325 552.265,568.864 543.726,577.403 
			518.107,577.403 509.569,568.864 501.03,568.864 501.03,577.403 		"/>
		<polygon id="chervenski-raion" fill="#CF6051" stroke="#FFFFFF" points="492.492,500.552 501.03,492.013 518.107,492.013 
			535.186,474.935 552.265,474.935 560.804,466.396 569.344,466.396 569.344,474.935 577.883,483.474 577.883,500.552 
			586.422,509.091 586.422,526.169 569.344,526.169 560.804,534.708 543.726,517.63 535.186,526.169 526.646,526.169 
			518.107,517.63 509.569,517.63 		"/>
		<polygon id="biarezinski-raion" fill="#CF6051" stroke="#FFFFFF" points="569.344,466.396 577.883,457.857 594.961,457.857 
			603.499,449.317 620.577,449.317 637.656,466.396 637.656,483.474 646.195,492.013 646.195,509.091 629.116,509.091 
			620.577,517.63 612.038,517.63 603.499,526.169 594.961,526.169 594.961,534.708 586.422,526.169 586.422,509.091 
			577.883,500.552 577.883,483.474 569.344,474.935 		"/>
		<polygon id="krupski-raion" fill="#CF6051" stroke="#FFFFFF" points="603.499,449.317 603.499,432.239 594.961,423.7 
			594.961,406.622 586.422,398.083 586.422,372.466 594.961,363.927 646.195,363.927 646.195,398.083 637.656,406.622 
			637.656,423.7 646.195,423.7 646.195,449.317 637.656,457.857 637.656,466.396 620.577,449.317 		"/>
		<polygon id="barysauski-raion" fill="#CF6051" stroke="#FFFFFF" points="560.804,466.396 552.265,457.857 552.265,449.317 
			526.646,423.7 526.646,406.622 518.107,398.083 526.646,389.544 509.569,372.466 501.03,363.927 501.03,355.388 526.646,355.388 
			543.726,372.466 552.265,363.927 552.265,355.388 569.344,355.388 569.344,363.927 577.883,372.466 586.422,372.466 
			586.422,398.083 594.961,406.622 594.961,423.7 603.499,432.239 603.499,449.317 594.961,457.857 577.883,457.857 
			569.344,466.396 		"/>
		<polygon id="smaliavitski-raion" fill="#CF6051" stroke="#FFFFFF" points="501.03,492.013 501.03,474.935 492.492,466.396 
			492.492,457.857 483.953,449.317 492.492,440.778 501.03,440.778 518.107,423.7 526.646,423.7 552.265,449.317 552.265,457.857 
			560.804,466.396 552.265,474.935 535.186,474.935 518.107,492.013 		"/>
		<polygon id="lagoiski-raion" fill="#CF6051" stroke="#FFFFFF" points="483.953,449.317 475.414,440.778 466.875,440.778 
			466.875,432.239 449.796,415.161 458.335,406.622 458.335,363.927 475.414,346.849 483.953,355.388 501.03,355.388 
			501.03,363.927 526.646,389.544 518.107,398.083 526.646,406.622 526.646,423.7 518.107,423.7 501.03,440.778 492.492,440.778 		
			"/>
		<polygon id="miadzelski-raion" fill="#CF6051" stroke="#FFFFFF" points="458.335,329.771 458.335,338.31 449.796,346.849 
			441.257,346.849 432.718,355.388 424.179,355.388 415.64,346.849 407.101,346.849 398.562,338.31 372.944,338.31 364.405,346.849 
			364.405,338.31 355.867,329.771 347.327,329.771 347.327,312.692 355.867,304.153 415.64,304.153 424.179,295.614 
			432.718,295.614 432.718,304.153 441.257,312.692 449.796,312.692 458.335,321.231 		"/>
		<polygon id="vileiski-raion" fill="#CF6051" stroke="#FFFFFF" points="372.944,389.544 390.022,389.544 398.562,398.083 
			407.101,398.083 415.64,406.622 432.718,406.622 441.257,415.161 449.796,415.161 458.335,406.622 458.335,363.927 
			475.414,346.849 475.414,338.31 466.875,329.771 458.335,329.771 458.335,338.31 449.796,346.849 441.257,346.849 
			432.718,355.388 424.179,355.388 415.64,346.849 407.101,346.849 398.562,338.31 372.944,338.31 364.405,346.849 372.944,355.388 
			381.483,355.388 381.483,372.466 372.944,381.005 		"/>
		<polygon id="maladzechanski-raion" fill="#CF6051" stroke="#FFFFFF" points="441.257,415.161 441.257,432.239 424.179,449.317 
			398.562,449.317 390.022,440.778 381.483,440.778 355.867,415.161 364.405,406.622 364.405,398.083 372.944,389.544 
			390.022,389.544 398.562,398.083 407.101,398.083 415.64,406.622 432.718,406.622 		"/>
		<polygon id="minski-raion" fill="#CF6051" stroke="#FFFFFF" points="424.179,449.317 424.179,457.857 415.64,466.396 
			415.64,474.935 424.179,483.474 432.718,483.474 449.796,500.552 449.796,509.091 458.335,517.63 475.414,517.63 483.953,509.091 
			483.953,500.552 492.492,500.552 501.03,492.013 501.03,474.935 492.492,466.396 492.492,457.857 483.953,449.317 
			475.414,440.778 466.875,440.778 466.875,432.239 449.796,415.161 441.257,415.161 441.257,432.239 		"/>
		<polygon id="valozhynski-raion" fill="#000111" stroke="#FFFFFF" points="415.64,474.935 407.101,474.935 398.562,483.474 
			355.867,483.474 347.327,474.935 355.867,466.396 355.867,457.857 347.327,457.857 347.327,449.317 330.249,449.317 
			330.249,440.778 321.71,440.778 321.71,432.239 330.249,423.7 347.327,423.7 355.867,415.161 381.483,440.778 390.022,440.778 
			398.562,449.317 424.179,449.317 424.179,457.857 415.64,466.396 		"/>
		<polygon id="staubtsouski-raion" fill="#000111" stroke="#FFFFFF" points="364.405,560.325 364.405,568.864 398.562,568.864 
			398.562,560.325 407.101,551.786 407.101,534.708 398.562,526.169 398.562,509.091 407.101,500.552 407.101,492.013 
			398.562,483.474 355.867,483.474 347.327,474.935 338.788,483.474 338.788,500.552 347.327,509.091 347.327,517.63 
			355.867,517.63 364.405,526.169 		"/>
		<polygon id="dziarzhynski-raion" fill="#000111" stroke="#FFFFFF" points="407.101,543.247 415.64,543.247 424.179,534.708 
			441.257,534.708 449.796,526.169 449.796,517.63 458.335,517.63 449.796,509.091 449.796,500.552 432.718,483.474 
			424.179,483.474 415.64,474.935 407.101,474.935 398.562,483.474 407.101,492.013 407.101,500.552 398.562,509.091 
			398.562,526.169 407.101,534.708 		"/>
		<polygon id="uzdzenski-raion" fill="#000111" stroke="#FFFFFF" points="398.562,560.325 407.101,568.864 424.179,568.864 
			432.718,577.403 441.257,568.864 449.796,568.864 458.335,560.325 466.875,560.325 475.414,551.786 466.875,543.247 
			466.875,534.708 458.335,526.169 458.335,517.63 449.796,517.63 449.796,526.169 441.257,534.708 424.179,534.708 415.64,543.247 
			407.101,543.247 407.101,551.786 		"/>
		<polygon id="slutski-raion" fill="#000111" stroke="#FFFFFF" points="449.796,568.864 449.796,577.403 458.335,585.942 
			424.179,620.099 424.179,637.177 458.335,637.177 466.875,645.716 475.414,645.716 492.492,628.638 501.03,628.638 501.03,611.56 
			509.569,603.021 509.569,594.481 492.492,594.481 492.492,585.942 483.953,577.403 475.414,577.403 466.875,568.864 
			466.875,560.325 458.335,560.325 		"/>
		<polygon id="kapylski-raion" fill="#000111" stroke="#FFFFFF" points="415.64,654.255 398.562,637.177 398.562,628.638 
			390.022,620.099 390.022,611.56 398.562,603.021 398.562,568.864 398.562,560.325 407.101,568.864 424.179,568.864 
			432.718,577.403 441.257,568.864 449.796,568.864 449.796,577.403 458.335,585.942 424.179,620.099 424.179,637.177 
			424.179,654.255 		"/>
		<polygon id="niasvizhski-raion" fill="#000111" stroke="#FFFFFF" points="347.327,568.864 347.327,577.403 338.788,585.942 
			338.788,594.481 347.839,603.021 372.944,603.021 381.483,611.56 390.022,611.56 398.562,603.021 398.562,568.864 
			364.405,568.864 364.405,560.325 355.867,560.325 		"/>
		<polygon id="kletski-raion" fill="#000111" stroke="#FFFFFF" points="355.867,603.021 364.405,611.56 347.327,628.638 
			355.867,637.177 355.867,654.255 364.405,645.716 372.944,645.716 390.022,662.794 407.101,662.794 415.64,654.255 
			398.562,637.177 398.562,628.638 390.022,620.099 390.022,611.56 381.483,611.56 372.944,603.021 		"/>
	</g>
	<g id="brestskaia-voblasts-subregions">
		<polygon id="baranavitski-raion" fill="#000111" stroke="#FFFFFF" points="347.839,603.021 330.249,603.021 321.71,611.56 
			321.71,628.638 313.171,637.177 304.632,637.177 296.093,645.716 287.554,645.716 270.476,628.638 261.937,628.638 
			270.476,620.099 270.476,585.942 279.015,577.403 279.015,568.864 287.554,560.325 304.632,560.325 330.249,560.325 
			338.788,568.864 347.327,568.864 347.327,577.403 338.788,585.942 338.788,594.481 		"/>
		<polygon id="liahavitski-raion" fill="#000111" stroke="#FFFFFF" points="296.093,645.716 296.093,654.255 313.171,671.333 
			313.171,679.872 330.249,662.794 338.788,662.794 347.327,654.255 355.867,654.255 355.867,637.177 347.327,628.638 
			364.405,611.56 355.867,603.021 330.249,603.021 321.71,611.56 321.71,628.638 313.171,637.177 304.632,637.177 		"/>
		<polygon id="hantsavitski-raion" fill="#000111" stroke="#FFFFFF" points="313.171,679.872 330.249,696.95 347.327,696.95 
			355.867,705.489 364.405,705.489 372.944,714.028 381.483,705.489 381.483,688.411 398.562,671.333 407.101,671.333 
			415.64,671.333 407.101,662.794 390.022,662.794 372.944,645.716 364.405,645.716 355.867,654.255 347.327,654.255 
			338.788,662.794 330.249,662.794 		"/>
		<polygon id="luninetski-raion" fill="#000111" stroke="#FFFFFF" points="372.944,714.028 364.405,714.028 355.867,722.567 
			355.867,731.105 364.405,739.646 364.405,748.185 372.944,756.724 381.483,756.724 390.022,765.263 458.335,765.263 
			458.335,748.185 449.796,739.646 441.257,739.646 432.718,731.105 424.179,722.567 424.179,714.028 415.64,705.489 
			415.64,671.333 398.562,671.333 381.483,688.411 381.483,705.489 		"/>
		<polygon id="stolinski-raion" fill="#000111" stroke="#FFFFFF" points="390.022,765.263 381.483,773.802 372.944,773.802 
			364.405,782.341 355.867,782.341 347.327,790.88 355.867,799.419 355.867,807.958 364.405,816.496 381.483,816.496 
			390.022,825.035 424.179,825.035 432.718,833.575 432.718,842.114 441.257,850.653 458.335,850.653 458.335,816.496 
			458.335,799.419 466.875,790.88 466.875,782.341 458.335,773.802 458.335,765.263 		"/>
		<polygon id="pinski-raion" fill="#000111" stroke="#FFFFFF" points="330.249,696.95 330.249,705.489 321.71,714.028 
			287.554,714.028 287.554,739.646 296.093,739.646 304.632,748.185 296.093,756.724 296.093,765.263 287.554,773.802 
			287.554,790.88 296.093,799.419 321.71,799.419 330.249,807.958 355.867,807.958 355.867,799.419 347.327,790.88 355.867,782.341 
			364.405,782.341 372.944,773.802 381.483,773.802 390.022,765.263 381.483,756.724 372.944,756.724 364.405,748.185 
			364.405,739.646 355.867,731.105 355.867,722.567 364.405,714.028 372.944,714.028 364.405,705.489 355.867,705.489 
			347.327,696.95 		"/>
		<polygon id="ivatsevichski-raion" fill="#000111" stroke="#FFFFFF" points="287.554,722.567 279.015,714.028 270.476,714.028 
			261.937,705.489 253.397,705.489 227.78,679.872 210.702,679.872 210.702,662.794 227.78,645.716 244.858,645.716 
			244.858,637.177 253.397,628.638 261.937,628.638 270.476,628.638 287.554,645.716 296.093,645.716 296.093,654.255 
			313.171,671.333 313.171,679.872 330.249,696.95 330.249,705.489 321.71,714.028 287.554,714.028 		"/>
		<polygon id="ivanauski-raion" fill="#000111" stroke="#FFFFFF" points="270.476,714.028 261.937,714.028 253.397,722.567 
			253.397,731.105 261.937,739.646 253.397,748.185 253.397,765.263 244.858,773.802 244.858,790.88 253.397,799.419 
			279.015,799.419 287.554,790.88 287.554,773.802 296.093,765.263 296.093,756.724 304.632,748.185 296.093,739.646 
			287.554,739.646 287.554,722.567 279.015,714.028 		"/>
		<polygon id="biarozauski-raion" fill="#000111" stroke="#FFFFFF" points="253.397,722.567 227.78,722.567 219.241,731.105 
			202.163,731.105 193.624,722.567 193.624,714.028 193.624,705.489 185.085,696.95 185.085,688.411 193.624,679.872 
			210.702,679.872 227.78,679.872 253.397,705.489 261.937,705.489 270.476,714.028 261.937,714.028 		"/>
		<polygon id="pruzhanski-raion" fill="#000111" stroke="#FFFFFF" points="193.624,714.028 185.085,714.028 176.546,722.567 
			168.007,714.028 159.468,714.028 150.929,722.567 142.39,722.567 125.312,705.489 125.312,696.95 116.772,688.411 
			116.772,679.872 116.772,662.794 125.312,662.794 133.851,654.255 142.39,662.794 159.468,662.794 168.007,671.333 
			176.546,662.794 176.546,645.716 185.085,637.177 193.624,628.638 210.702,628.638 210.702,637.177 219.241,645.716 
			227.78,645.716 210.702,662.794 210.702,679.872 193.624,679.872 185.085,688.411 185.085,696.95 193.624,705.489 		"/>
		<polygon id="kamiznetski-raion" fill="#000111" stroke="#FFFFFF" points="116.772,679.872 99.694,679.872 91.155,688.411 
			74.077,688.411 57,705.489 57,714.028 48.46,722.567 48.46,731.105 39.921,739.646 48.46,748.185 57,748.185 65.538,756.724 
			65.538,739.646 74.077,731.105 82.616,731.105 99.694,748.185 108.233,748.185 108.233,731.105 125.312,731.105 133.851,722.567 
			142.39,722.567 125.312,705.489 125.312,696.95 116.772,688.411 		"/>
		<polygon id="brestski-raion" fill="#000111" stroke="#FFFFFF" points="65.538,756.724 74.077,765.263 82.616,765.263 
			82.616,773.802 91.155,782.341 91.155,790.88 82.616,799.419 82.616,825.035 74.077,833.575 74.077,859.192 82.616,867.731 
			82.616,850.653 91.155,842.114 99.694,842.114 99.694,825.035 108.233,816.496 108.233,807.958 116.772,799.419 116.772,790.88 
			125.312,782.341 133.851,782.341 116.772,765.263 116.772,756.724 108.233,748.185 99.694,748.185 82.616,731.105 74.077,731.105 
			65.538,739.646 		"/>
		<polygon id="zhabinkauski-raion" fill="#000111" stroke="#FFFFFF" points="133.851,782.341 142.39,782.341 142.39,773.802 
			150.929,765.263 142.39,756.724 142.39,748.185 133.851,739.646 133.851,722.567 125.312,731.105 108.233,731.105 
			108.233,748.185 116.772,756.724 116.772,765.263 		"/>
		<polygon id="malarytski-raion" fill="#000111" stroke="#FFFFFF" points="99.694,842.114 108.233,842.114 116.772,850.653 
			116.772,859.192 125.312,859.192 133.851,850.653 159.468,825.035 159.468,799.419 168.007,790.88 159.468,782.341 
			142.39,782.341 133.851,782.341 125.312,782.341 116.772,790.88 116.772,799.419 108.233,807.958 108.233,816.496 99.694,825.035 
					"/>
		<polygon id="kobrynski-raion" fill="#000111" stroke="#FFFFFF" points="159.468,799.419 193.624,799.419 202.163,790.88 
			202.163,782.341 193.624,773.802 193.624,731.105 202.163,731.105 193.624,722.567 193.624,714.028 185.085,714.028 
			176.546,722.567 168.007,714.028 159.468,714.028 150.929,722.567 133.851,722.567 133.851,739.646 142.39,748.185 
			142.39,756.724 150.929,765.263 142.39,773.802 142.39,782.341 159.468,782.341 168.007,790.88 		"/>
		<polygon id="drahichynski-raion" fill="#000111" stroke="#FFFFFF" points="193.624,799.419 219.241,799.419 227.78,790.88 
			244.858,790.88 244.858,773.802 253.397,765.263 253.397,748.185 261.937,739.646 253.397,731.105 253.397,722.567 
			227.78,722.567 219.241,731.105 202.163,731.105 193.624,731.105 193.624,773.802 202.163,782.341 202.163,790.88 		"/>
	</g>
</g>
<g id="regions_1_">
	<polygon id="hrodnenskaia-voblasts_1_" fill="none" stroke="#EFEFF8" stroke-width="5" points="373.884,355.388 365.345,346.849 
		365.345,338.31 356.806,329.771 348.266,329.771 348.266,312.692 331.188,295.614 322.649,304.153 305.571,304.153 
		297.032,312.692 297.032,321.231 288.494,329.771 288.494,363.927 279.954,372.466 279.954,389.544 271.415,398.083 
		279.954,406.622 288.494,406.622 297.032,415.161 297.032,423.7 297.032,432.239 288.494,432.239 279.954,440.778 271.415,440.778 
		262.364,432.239 271.415,423.7 271.415,415.161 262.876,406.622 254.337,415.161 245.798,415.161 228.72,432.239 211.641,432.239 
		203.103,440.778 203.103,457.857 194.563,466.396 186.024,457.857 177.485,466.396 168.946,466.396 160.407,474.935 
		143.329,474.935 134.79,466.396 117.712,466.396 109.173,474.935 92.094,474.935 83.555,466.396 75.016,466.396 75.016,483.474 
		83.555,492.013 83.555,526.169 92.094,534.708 92.094,551.786 100.633,560.325 100.633,568.864 100.633,577.403 109.173,585.942 
		109.173,611.56 117.712,620.099 117.712,662.794 126.25,662.794 134.79,654.255 143.329,662.794 160.407,662.794 168.946,671.333 
		177.485,662.794 177.485,645.716 186.024,637.177 194.563,628.638 211.641,628.638 211.641,637.177 220.181,645.716 
		245.798,645.716 245.798,637.177 254.337,628.638 262.876,628.638 271.415,620.099 271.415,585.942 279.954,577.403 
		279.954,568.864 288.494,560.325 305.571,560.325 331.188,560.325 339.727,568.864 348.266,568.864 356.806,560.325 
		365.345,560.325 365.345,526.169 356.806,517.63 348.266,517.63 348.266,509.091 339.727,500.552 339.727,492.013 339.727,483.474 
		356.806,466.396 356.806,457.857 348.266,457.857 348.266,449.317 331.188,449.317 331.188,440.778 322.649,440.778 
		322.649,432.239 331.188,423.7 348.266,423.7 365.345,406.622 365.345,398.083 373.884,389.544 373.884,381.005 382.423,372.466 
		382.423,355.388 	"/>
	<polygon id="vitsebskaia-voblasts_1_" fill="none" stroke="#EFEFF8" stroke-width="5" points="817.915,363.927 817.915,346.849 
		800.837,346.849 792.298,338.31 783.759,338.31 775.22,329.771 775.22,321.231 783.759,312.692 783.759,304.153 792.298,304.153 
		792.298,295.614 800.837,287.075 800.837,269.997 792.298,261.458 783.759,252.919 783.759,235.84 792.298,227.301 
		792.298,193.145 783.759,193.145 775.22,201.685 766.681,193.145 766.681,184.606 749.604,167.528 741.064,167.528 
		732.525,158.989 689.829,158.989 681.29,167.528 664.213,167.528 655.674,176.067 647.135,176.067 638.596,167.528 
		638.596,158.989 647.135,150.45 647.135,141.911 638.596,133.372 621.517,133.372 612.978,124.833 604.438,124.833 587.36,141.911 
		578.821,141.911 578.821,133.372 570.283,124.833 570.283,116.294 553.205,116.294 544.666,116.294 536.126,124.833 
		527.587,116.294 527.587,107.755 510.509,107.755 493.431,124.833 493.431,133.372 484.892,141.911 476.353,141.911 
		467.813,150.45 467.813,167.528 459.275,167.528 442.196,167.528 433.657,158.989 416.579,158.989 390.962,184.606 
		373.884,184.606 373.884,201.685 365.345,210.224 365.345,227.301 356.806,235.84 365.345,244.379 390.962,244.379 
		399.501,252.919 390.962,252.919 382.423,261.458 382.423,269.997 348.266,269.997 339.727,278.536 339.727,287.075 
		331.188,295.614 348.266,312.692 356.806,304.153 416.579,304.153 425.118,295.614 433.657,295.614 433.657,304.153 
		442.196,312.692 450.736,312.692 459.275,321.231 459.275,329.771 467.813,329.771 476.353,338.31 476.353,346.849 
		484.892,355.388 527.587,355.388 544.666,372.466 553.205,363.927 553.205,355.388 570.283,355.388 570.283,363.927 
		578.821,372.466 587.36,372.466 595.899,363.927 647.135,363.927 647.135,398.083 638.596,406.622 638.596,423.7 647.135,423.7 
		664.213,406.622 689.829,406.622 698.368,415.161 706.907,415.161 706.907,406.622 723.985,406.622 732.525,415.161 
		749.604,415.161 758.142,406.622 758.142,398.083 766.681,389.544 775.22,398.083 783.759,398.083 792.298,389.544 
		809.376,389.544 817.915,381.005 809.376,381.005 809.376,372.466 	"/>
	<polygon id="mahiliouskaia-voblasts_1_" fill="none" stroke="#EFEFF8" stroke-width="5" points="954.54,543.247 937.462,526.169 
		937.462,509.091 928.922,500.552 920.385,500.552 911.845,492.013 886.228,492.013 877.688,492.013 869.149,483.474 
		877.688,474.935 877.688,449.317 869.149,449.317 860.61,440.778 852.071,440.778 834.992,423.7 826.455,423.7 826.455,415.161 
		826.455,389.544 817.915,381.005 809.376,389.544 792.298,389.544 783.759,398.083 775.22,398.083 766.681,389.544 
		758.142,398.083 758.142,406.622 749.604,415.161 732.525,415.161 723.985,406.622 706.907,406.622 706.907,415.161 
		698.368,415.161 689.829,406.622 664.213,406.622 647.135,423.7 647.135,449.317 638.596,457.857 638.596,483.474 647.135,492.013 
		647.135,509.091 630.056,509.091 621.517,517.63 612.978,517.63 604.438,526.169 595.899,526.169 595.899,534.708 587.36,526.169 
		570.283,526.169 553.205,543.247 544.666,543.247 544.666,560.325 553.205,568.864 544.666,577.403 519.048,577.403 
		519.048,585.942 527.587,594.481 543.812,594.481 553.205,603.021 561.744,603.021 561.744,620.099 553.205,628.638 
		553.205,637.177 544.666,645.716 544.666,654.255 536.126,662.794 544.666,671.333 587.36,671.333 587.36,662.794 595.899,654.255 
		595.899,645.716 612.978,645.716 621.517,637.177 647.135,637.177 655.674,628.638 672.751,628.638 664.213,620.099 
		664.213,603.021 672.751,603.021 681.29,594.481 681.29,585.942 672.751,577.403 681.29,568.864 689.829,568.864 698.368,568.864 
		706.907,577.403 715.446,577.403 715.446,585.942 732.525,585.942 749.604,568.864 758.142,568.864 766.681,577.403 
		800.837,577.403 800.837,594.481 809.376,603.021 834.992,603.021 843.532,594.481 860.61,594.481 869.149,594.481 886.228,611.56 
		911.845,611.56 928.922,594.481 963.079,560.325 963.079,543.247 	"/>
	<polygon id="homelskaia-voblasts_1_" fill="none" stroke="#EFEFF8" stroke-width="5" points="869.149,756.724 869.149,748.185 
		852.071,731.105 852.071,705.489 860.61,696.95 852.071,688.411 852.071,679.872 852.071,662.794 843.532,654.255 843.532,645.716 
		826.455,628.638 826.455,620.099 834.992,611.56 834.992,603.021 809.376,603.021 800.837,594.481 800.837,577.403 
		766.681,577.403 758.142,568.864 749.604,568.864 732.525,585.942 715.446,585.942 715.446,577.403 706.907,577.403 
		698.368,568.864 681.29,568.864 672.751,577.403 681.29,585.942 681.29,594.481 672.751,603.021 664.213,603.021 664.213,620.099 
		672.751,628.638 655.674,628.638 647.135,637.177 638.596,637.177 621.517,637.177 612.978,645.716 595.899,645.716 
		595.899,654.255 587.36,662.794 587.36,671.333 553.205,671.333 553.205,679.872 544.666,688.411 544.666,705.489 536.126,714.028 
		519.048,714.028 510.509,705.489 501.97,705.489 501.97,714.028 476.353,714.028 467.813,705.489 467.813,696.95 459.275,696.95 
		442.196,714.028 442.196,722.567 433.657,731.105 442.196,739.646 450.736,739.646 459.275,748.185 459.275,773.802 
		467.813,782.341 467.813,790.88 459.275,799.419 459.275,816.496 459.275,850.653 476.353,850.653 476.353,867.731 
		484.892,867.731 493.431,859.192 510.509,859.192 527.587,842.114 536.126,842.114 536.126,850.653 544.666,859.192 
		553.205,859.192 570.283,859.192 570.283,876.271 578.821,884.81 587.36,884.81 587.36,867.731 595.899,859.192 604.438,859.192 
		612.978,850.653 612.978,842.114 621.517,842.114 621.517,859.192 630.056,867.731 630.056,884.81 647.135,884.81 664.213,867.731 
		672.751,867.731 681.29,876.271 698.368,876.271 706.907,867.731 715.446,867.731 732.525,884.81 732.525,893.349 749.604,910.427 
		758.142,901.887 758.142,867.731 749.604,859.192 749.604,850.653 758.142,842.114 758.142,833.575 766.681,825.035 
		766.681,807.958 792.298,782.341 792.298,773.802 809.376,773.802 817.915,782.341 826.455,782.341 826.455,773.802 
		834.992,765.263 852.071,765.263 860.61,773.802 877.688,773.802 877.688,765.263 	"/>
	<polygon id="minskaia-voblasts_1_" fill="none" stroke="#EFEFF8" stroke-width="5" points="647.135,398.083 647.135,363.927 
		595.899,363.927 587.36,372.466 578.821,372.466 570.283,363.927 570.283,355.388 553.205,355.388 553.205,363.927 
		544.666,372.466 527.587,355.388 501.97,355.388 484.892,355.388 476.353,346.849 476.353,338.31 467.813,329.771 459.275,329.771 
		459.275,321.231 450.736,312.692 442.196,312.692 433.657,304.153 433.657,295.614 425.118,295.614 416.579,304.153 
		356.806,304.153 348.266,312.692 348.266,329.771 356.806,329.771 365.345,338.31 365.345,346.849 373.884,355.388 
		382.423,355.388 382.423,372.466 373.884,381.005 373.884,389.544 365.345,398.083 365.345,406.622 356.806,415.161 348.266,423.7 
		331.188,423.7 322.649,432.239 322.649,440.778 331.188,440.778 331.188,449.317 348.266,449.317 348.266,457.857 356.806,457.857 
		356.806,466.396 348.266,474.935 339.727,483.474 339.727,500.552 348.266,509.091 348.266,517.63 356.806,517.63 365.345,526.169 
		365.345,560.325 356.806,560.325 348.266,568.864 348.266,577.403 339.727,585.942 339.727,594.481 348.779,603.021 
		356.806,603.021 365.345,611.56 348.266,628.638 356.806,637.177 356.806,654.255 365.345,645.716 373.884,645.716 
		390.962,662.794 408.04,662.794 416.579,671.333 416.579,705.489 425.118,714.028 425.118,722.567 433.657,731.105 
		442.196,722.567 442.196,714.028 459.275,696.95 467.813,696.95 467.813,705.489 476.353,714.028 501.97,714.028 501.97,705.489 
		510.509,705.489 519.048,714.028 536.126,714.028 544.666,705.489 544.666,688.411 553.205,679.872 553.205,671.333 
		544.666,671.333 536.126,662.794 544.666,654.255 544.666,645.716 553.205,637.177 553.205,628.638 561.744,620.099 
		561.744,603.021 553.205,603.021 543.812,594.481 527.587,594.481 519.048,585.942 519.048,577.403 544.666,577.403 
		553.205,568.864 544.666,560.325 544.666,543.247 553.205,543.247 561.744,534.708 570.283,526.169 587.36,526.169 
		595.899,534.708 595.899,526.169 604.438,526.169 612.978,517.63 621.517,517.63 630.056,509.091 647.135,509.091 647.135,492.013 
		638.596,483.474 638.596,466.396 638.596,457.857 647.135,449.317 647.135,423.7 638.596,423.7 638.596,406.622 	"/>
	<polygon id="brestskaia-voblasts_1_" fill="none" stroke="#EFEFF8" stroke-width="5" points="459.275,773.802 459.275,765.263 
		459.275,748.185 450.736,739.646 442.196,739.646 433.657,731.105 425.118,722.567 425.118,714.028 416.579,705.489 
		416.579,671.333 408.04,662.794 390.962,662.794 373.884,645.716 365.345,645.716 356.806,654.255 356.806,637.177 
		348.266,628.638 365.345,611.56 356.806,603.021 348.779,603.021 339.727,594.481 339.727,585.942 348.266,577.403 
		348.266,568.864 339.727,568.864 331.188,560.325 305.571,560.325 288.494,560.325 279.954,568.864 279.954,577.403 
		271.415,585.942 271.415,620.099 262.876,628.638 254.337,628.638 245.798,637.177 245.798,645.716 228.72,645.716 
		220.181,645.716 211.641,637.177 211.641,628.638 194.563,628.638 186.024,637.177 177.485,645.716 177.485,662.794 
		168.946,671.333 160.407,662.794 143.329,662.794 134.79,654.255 126.25,662.794 117.712,662.794 117.712,679.872 100.633,679.872 
		92.094,688.411 75.016,688.411 57.938,705.489 57.938,714.028 49.399,722.567 49.399,731.105 40.86,739.646 49.399,748.185 
		57.938,748.185 66.478,756.724 75.016,765.263 83.555,765.263 83.555,773.802 92.094,782.341 92.094,790.88 83.555,799.419 
		83.555,825.035 75.016,833.575 75.016,859.192 83.555,867.731 83.555,850.653 92.094,842.114 100.633,842.114 109.173,842.114 
		117.712,850.653 117.712,859.192 126.25,859.192 134.79,850.653 160.407,825.035 160.407,799.419 194.563,799.419 220.181,799.419 
		228.72,790.88 245.798,790.88 254.337,799.419 279.954,799.419 288.494,790.88 297.032,799.419 322.649,799.419 331.188,807.958 
		356.806,807.958 365.345,816.496 382.423,816.496 390.962,825.035 425.118,825.035 433.657,833.575 433.657,842.114 
		442.196,850.653 459.275,850.653 459.275,816.496 459.275,799.419 467.813,790.88 467.813,782.341 	"/>
</g>
<g id="harady_1_" opacity="0.5">
	<circle id="horad-pinsk_1_" fill="#CCCCCC" cx="322.649" cy="765.263" r="6.832"/>
	<circle id="horad-baranavichy_1_" fill="#CCCCCC" cx="314.11" cy="603.021" r="6.831"/>
	<circle id="horad-zhodzina_1_" fill="#CCCCCC" cx="536.126" cy="440.778" r="6.832"/>
	<circle id="horad-babruisk_1_" fill="#CCCCCC" cx="621.517" cy="594.481" r="6.831"/>
	<circle id="horad-mahiliou_1_" fill="#CCCCCC" cx="732.525" cy="474.935" r="6.832"/>
	<circle id="horad-brest_1_" fill="#CCCCCC" cx="92.094" cy="773.802" r="6.831"/>
	<circle id="horad-vitsebsk_1_" fill="#CCCCCC" cx="715.446" cy="269.997" r="6.832"/>
	<circle id="horad-homel_1_" fill="#CCCCCC" cx="800.837" cy="722.568" r="6.832"/>
	<circle id="horad-hrodna_1_" fill="#CCCCCC" cx="100.633" cy="509.091" r="6.831"/>
	<circle id="horad-navapolatsk_1_" fill="#CCCCCC" cx="561.744" cy="210.224" r="6.831"/>
</g>
<circle id="horad-minsk_1_" opacity="0.5" fill="#CCCCCC" cx="464.398" cy="476.642" r="13.663"/>
</svg>
