<?xml version="1.0" encoding="utf-8"?>
<!-- Generator: Adobe Illustrator 16.0.0, SVG Export Plug-In . SVG Version: 6.00 Build 0)  -->
<!DOCTYPE svg PUBLIC "-//W3C//DTD SVG 1.1//EN" "http://www.w3.org/Graphics/SVG/1.1/DTD/svg11.dtd">
<svg version="1.1" id="Слой_2" xmlns="http://www.w3.org/2000/svg" xmlns:xlink="http://www.w3.org/1999/xlink" x="0px" y="0px"
	 width="1000px" height="1000px" viewBox="0 0 1000 1000" enable-background="new 0 0 1000 1000" xml:space="preserve">
<g id="Слой_2">
	<g>
		<g>
			<defs>
				<path id="SVGID_1_" d="M776.387,172.625c0,0-68.92-11.252-111.116,13.362s-108.303,56.261-127.994,54.855
					c-19.692-1.407-108.304-19.692-209.574-76.656c-101.271-56.965-224.342-26.021-224.342-26.021S-7.756,174.734,6.309,271.785
					c14.065,97.051,68.217,116.743,134.324,170.191c66.107,53.448,71.03,97.754,11.252,142.06S51.318,649.44,98.437,696.559
					c47.119,47.119,135.731,49.933,179.333,37.273s142.763-75.25,172.3-72.437s28.131-20.395,187.069,21.098
					c158.938,41.493,347.181-67.505,349.994-277.547C989.947,194.904,776.387,172.625,776.387,172.625z"/>
			</defs>
			<clipPath id="SVGID_2_">
				<use xlink:href="#SVGID_1_"  overflow="visible"/>
			</clipPath>
			<g clip-path="url(#SVGID_2_)">
				
					<image overflow="visible" width="1440" height="900" xlink:href="D8A796DC.jpg"  transform="matrix(1.1219 0 0 1.1219 -314.4009 -59.375)">
				</image>
			</g>
		</g>
	</g>
</g>
</svg>
